<?xml version="1.0" encoding="utf-8"?>
<!-- Generator: Adobe Illustrator 19.2.0, SVG Export Plug-In . SVG Version: 6.00 Build 0)  -->
<!DOCTYPE svg PUBLIC "-//W3C//DTD SVG 1.1//EN" "http://www.w3.org/Graphics/SVG/1.1/DTD/svg11.dtd">
<svg version="1.1" id="Layer_1" xmlns="http://www.w3.org/2000/svg" xmlns:xlink="http://www.w3.org/1999/xlink" x="0px" y="0px"
	 width="400px" height="400px" viewBox="0 0 400 400" style="enable-background:new 0 0 400 400;" xml:space="preserve">
<style type="text/css">
	.st0{fill:none;stroke:#000000;stroke-width:20;stroke-miterlimit:10;}
</style>
<g>
	<g>
		<path d="M270,133c-34.9-7.9-71.2,11-84,45.4c-3.1,8.4-4.6,17.1-4.6,25.6c-10-15.4-28.1-24.6-47.6-22.3
			c-11.5,1.4-21.7,6.6-29.3,14.2c9.6,21.8,32.6,35.7,57.5,32.8c5.3-0.6,10.3-2,14.9-3.9c3.6,3.7,6.9,8,9.2,12.6
			c7.2,14.6-6.1,22.2-8.5,35.1c-1.9,9.8,1.1,20.5,8.2,27.7c0.7,0.7,1.4,1.4,2.3,1.7c0.9,0.3,1.9,0.3,2.8,0.3c6.5,0,12.9,0,19.4,0
			c-1.7-1-3.2-2.2-4.6-3.6c-5.9-5.8-9.1-14.4-8.3-22.7c1.1-12,13.5-17.7,13.4-29c0-8.1-4.8-15.4-10.3-21.6
			c28.7-4,54.3-23.1,65.1-52.2C270.7,159.9,271.9,146.1,270,133z M195.5,217.5l-4-4.4c7-44.4,42-48.3,42-48.3
			C205.8,169.4,195.5,217.5,195.5,217.5z"/>
		<circle class="st0" cx="200" cy="199.4" r="110.7"/>
	</g>
	<path d="M213.5,257.2c0,0-21.2,22.3-1.8,38.3c0,0,30-1.5,60.2-29.5C271.8,266,244.6,252.5,213.5,257.2z"/>
	<path d="M174.6,266.3c0,0-10.1,16.3,1.4,27.4c0,0-32.8-12.1-43.5-26.6C132.5,267.1,164,261.8,174.6,266.3z"/>
</g>
</svg>
