<?xml version="1.0" encoding="utf-8"?>
<!-- Generator: Adobe Illustrator 19.2.0, SVG Export Plug-In . SVG Version: 6.00 Build 0)  -->
<!DOCTYPE svg PUBLIC "-//W3C//DTD SVG 1.1//EN" "http://www.w3.org/Graphics/SVG/1.1/DTD/svg11.dtd">
<svg version="1.1" id="Layer_1" xmlns="http://www.w3.org/2000/svg" xmlns:xlink="http://www.w3.org/1999/xlink" x="0px" y="0px"
	 width="400px" height="400px" viewBox="0 0 400 400" style="enable-background:new 0 0 400 400;" xml:space="preserve">
<style type="text/css">
	.st0{stroke:#000000;stroke-width:0.7517;stroke-miterlimit:10;}
	.st1{stroke:#000000;stroke-width:1.063;stroke-miterlimit:10;}
</style>
<g>
	<path class="st0" d="M200,172.5c33.9,0,63.5,9.4,78.7,23.4c6.9-6.4,10.9-13.6,10.9-21.4c0-24.7-40.1-44.8-89.5-44.8
		c-49.4,0-89.5,20-89.5,44.8c0,7.8,3.9,15,10.9,21.4C136.5,182,166.1,172.5,200,172.5z"/>
	<path class="st1" d="M200,242.6c-33.9,0-63.5-18.9-78.7-46.7c-6.9,12.7-10.9,27.3-10.9,42.8c0,49.4,40.1,89.5,89.5,89.5
		c49.4,0,89.5-40.1,89.5-89.5c0-15.5-3.9-30.1-10.9-42.8C263.5,223.7,233.9,242.6,200,242.6z"/>
</g>
<path d="M200,157.1c-21.6,0-39,17.5-39,39c0,21.6,17.5,39,39,39s39-17.5,39-39C239,174.6,221.6,157.1,200,157.1z M200,215.4
	c-10.6,0-19.2-8.6-19.2-19.2S189.4,177,200,177s19.2,8.6,19.2,19.2S210.6,215.4,200,215.4z"/>
<ellipse transform="matrix(0.1343 -0.9909 0.9909 0.1343 -13.5728 359.6697)" cx="199.1" cy="187.6" rx="6.2" ry="6.2"/>
<ellipse transform="matrix(0.1343 -0.9909 0.9909 0.1343 -17.8655 379.7394)" cx="208.4" cy="200.1" rx="6.2" ry="6.2"/>
<ellipse transform="matrix(0.1343 -0.9909 0.9909 0.1343 -32.3509 363.8778)" cx="192.1" cy="200.5" rx="6.2" ry="6.2"/>
</svg>
