<?xml version="1.0" encoding="utf-8"?>
<!-- Generator: Adobe Illustrator 19.2.0, SVG Export Plug-In . SVG Version: 6.00 Build 0)  -->
<!DOCTYPE svg PUBLIC "-//W3C//DTD SVG 1.1//EN" "http://www.w3.org/Graphics/SVG/1.1/DTD/svg11.dtd">
<svg version="1.1" id="Layer_1" xmlns="http://www.w3.org/2000/svg" xmlns:xlink="http://www.w3.org/1999/xlink" x="0px" y="0px"
	 width="400px" height="400px" viewBox="0 0 400 400" style="enable-background:new 0 0 400 400;" xml:space="preserve">
<path d="M241.6,133.9c7.7-10,12.3-22.6,12.3-36.2c0-32.9-26.6-59.5-59.5-59.5s-59.5,26.6-59.5,59.5c0,13.3,4.3,25.5,11.7,35.4
	c-4,2.8-6.5,7.5-6.5,12.7c0,8.6,7,15.6,15.6,15.6c3.4,0,6.6-1.1,9.2-3v14.9c0,4.2,3.5,7.7,7.7,7.7h1.5v-19.9h4.7V181h13.3v-19.9h4.7
	V181h12.4v-19.9h4.7V181h2.4c4.2,0,7.7-3.5,7.7-7.7v-13.9c2.2,1.3,4.8,2,7.6,2c8.6,0,15.6-7,15.6-15.6
	C247.2,141,245,136.8,241.6,133.9z M173.7,132.1c-6.8,0-12.4-5.5-12.4-12.4s5.5-12.4,12.4-12.4c6.8,0,12.4,5.5,12.4,12.4
	S180.5,132.1,173.7,132.1z M188,139.4l6.4-6.4l6.4,6.4H188z M217.4,132.1c-6.8,0-12.4-5.5-12.4-12.4s5.5-12.4,12.4-12.4
	s12.4,5.5,12.4,12.4S224.3,132.1,217.4,132.1z"/>
<path d="M329.8,295.8c4.5-5.8,7.1-13.1,7.1-21c0-19.1-15.5-34.6-34.6-34.6s-34.6,15.5-34.6,34.6c0,7.7,2.5,14.8,6.8,20.6
	c-2.3,1.6-3.8,4.3-3.8,7.4c0,5,4.1,9.1,9.1,9.1c2,0,3.8-0.6,5.3-1.7v8.7c0,2.5,2,4.5,4.5,4.5h0.9v-11.6h2.7v11.6h7.7v-11.6h2.7v11.6
	h7.2v-11.6h2.7v11.6h1.4c2.5,0,4.5-2,4.5-4.5v-8.1c1.3,0.7,2.8,1.1,4.4,1.1c5,0,9.1-4.1,9.1-9.1
	C333.1,299.9,331.8,297.4,329.8,295.8z M290.3,294.7c-4,0-7.2-3.2-7.2-7.2c0-4,3.2-7.2,7.2-7.2c4,0,7.2,3.2,7.2,7.2
	C297.5,291.5,294.3,294.7,290.3,294.7z M298.7,298.9l3.7-3.7l3.7,3.7H298.7z M315.8,294.7c-4,0-7.2-3.2-7.2-7.2c0-4,3.2-7.2,7.2-7.2
	s7.2,3.2,7.2,7.2C323,291.5,319.7,294.7,315.8,294.7z"/>
<path d="M221.9,266.6c4.5-5.8,7.1-13.1,7.1-21c0-19.1-15.5-34.6-34.6-34.6s-34.6,15.5-34.6,34.6c0,7.7,2.5,14.8,6.8,20.6
	c-2.3,1.6-3.8,4.3-3.8,7.4c0,5,4.1,9.1,9.1,9.1c2,0,3.8-0.6,5.3-1.7v8.7c0,2.5,2,4.5,4.5,4.5h0.9v-11.6h2.7V294h7.7v-11.6h2.7V294
	h7.2v-11.6h2.7V294h1.4c2.5,0,4.5-2,4.5-4.5v-8.1c1.3,0.7,2.8,1.1,4.4,1.1c5,0,9.1-4.1,9.1-9.1C225.1,270.8,223.8,268.3,221.9,266.6
	z M182.4,265.6c-4,0-7.2-3.2-7.2-7.2c0-4,3.2-7.2,7.2-7.2c4,0,7.2,3.2,7.2,7.2C189.6,262.4,186.3,265.6,182.4,265.6z M190.7,269.8
	l3.7-3.7l3.7,3.7H190.7z M207.8,265.6c-4,0-7.2-3.2-7.2-7.2c0-4,3.2-7.2,7.2-7.2c4,0,7.2,3.2,7.2,7.2
	C215,262.4,211.8,265.6,207.8,265.6z"/>
<path d="M304.5,202.1c3.5,3.5,3.7,9,0.5,12.3c-2.1,2.1-5.1,2.8-8,2c0.8,2.8,0.1,5.8-2,7.9c-3.2,3.2-8.6,3-12.1-0.4
	c-3.2-3.2-3.6-8.1-1.1-11.3l-29.4-29.4c-3.3,2.3-8,1.9-11.1-1.3c-3.5-3.5-3.7-8.9-0.4-12.1c2.1-2.1,5-2.7,7.8-2
	c-0.8-2.9-0.1-5.9,2-8.1c3.3-3.3,8.7-3.1,12.3,0.5c3.1,3.1,3.6,7.7,1.5,11l29.4,29.4C296.9,198.5,301.4,199.1,304.5,202.1z"/>
<path d="M102.8,225.6c-3.7,3.7-9.3,4-12.5,0.7c-2.1-2.1-2.7-5.2-1.9-8.1c-2.9,0.8-6,0.2-8.1-1.9c-3.2-3.2-2.9-8.8,0.7-12.4
	c3.3-3.3,8.3-3.9,11.6-1.4l30.6-30.6c-2.3-3.3-1.7-8.1,1.5-11.4c3.6-3.6,9.2-3.9,12.4-0.7c2.1,2.1,2.7,5.1,1.9,7.9
	c2.9-0.9,6.1-0.3,8.2,1.9c3.3,3.3,2.9,8.9-0.7,12.5c-3.2,3.2-8,3.9-11.3,1.7l-30.7,30.7C106.7,217.8,106,222.5,102.8,225.6z"/>
<path d="M112.1,295.5c4.5-5.8,7.1-13.1,7.1-21c0-19.1-15.5-34.6-34.6-34.6S50,255.3,50,274.4c0,7.7,2.5,14.8,6.8,20.6
	c-2.3,1.6-3.8,4.3-3.8,7.4c0,5,4.1,9.1,9.1,9.1c2,0,3.8-0.6,5.3-1.7v8.7c0,2.5,2,4.5,4.5,4.5h0.9v-11.6h2.7v11.6h7.7v-11.6H86v11.6
	h7.2v-11.6h2.7v11.6h1.4c2.5,0,4.5-2,4.5-4.5v-8.1c1.3,0.7,2.8,1.1,4.4,1.1c5,0,9.1-4.1,9.1-9.1C115.3,299.6,114,297.1,112.1,295.5z
	 M72.6,294.4c-4,0-7.2-3.2-7.2-7.2s3.2-7.2,7.2-7.2c4,0,7.2,3.2,7.2,7.2S76.5,294.4,72.6,294.4z M80.9,298.6l3.7-3.7l3.7,3.7H80.9z
	 M98,294.4c-4,0-7.2-3.2-7.2-7.2S94,280,98,280s7.2,3.2,7.2,7.2S101.9,294.4,98,294.4z"/>
<g>
</g>
<g>
</g>
<g>
</g>
<g>
</g>
<g>
</g>
<g>
</g>
</svg>
