<?xml version="1.0" encoding="utf-8"?>
<!-- Generator: Adobe Illustrator 19.2.0, SVG Export Plug-In . SVG Version: 6.00 Build 0)  -->
<!DOCTYPE svg PUBLIC "-//W3C//DTD SVG 1.1//EN" "http://www.w3.org/Graphics/SVG/1.1/DTD/svg11.dtd">
<svg version="1.1" id="Layer_1" xmlns="http://www.w3.org/2000/svg" xmlns:xlink="http://www.w3.org/1999/xlink" x="0px" y="0px"
	 width="400px" height="417.8px" viewBox="0 0 400 417.8" style="enable-background:new 0 0 400 417.8;" xml:space="preserve">
<style type="text/css">
	.st0{stroke:#000000;stroke-width:1.063;stroke-miterlimit:10;}
</style>
<path d="M200,190.3c33.9,0,63.5,9.4,78.7,23.4c6.9-6.4,10.9-13.6,10.9-21.4c0-24.7-40.1-44.8-89.5-44.8s-89.5,20-89.5,44.8
	c0,7.8,3.9,15,10.9,21.4C136.5,199.8,166.1,190.3,200,190.3z"/>
<path class="st0" d="M200,260.4c-33.9,0-63.5-18.9-78.7-46.7c-6.9,12.7-10.9,27.3-10.9,42.8c0,49.4,40.1,89.5,89.5,89.5
	s89.5-40.1,89.5-89.5c0-15.5-3.9-30.1-10.9-42.8C263.5,241.6,233.9,260.4,200,260.4z"/>
<path d="M200,175c-21.6,0-39,17.5-39,39c0,21.6,17.5,39,39,39s39-17.5,39-39C239,192.4,221.6,175,200,175z M200,233.2
	c-10.6,0-19.2-8.6-19.2-19.2s8.6-19.2,19.2-19.2s19.2,8.6,19.2,19.2S210.6,233.2,200,233.2z"/>
<ellipse transform="matrix(0.1343 -0.9909 0.9909 0.1343 -30.479 375.998)" cx="200" cy="205.4" rx="6.2" ry="6.2"/>
<ellipse transform="matrix(0.1343 -0.9909 0.9909 0.1343 -42.8521 386.8207)" cx="200" cy="217.9" rx="6.2" ry="6.2"/>
<ellipse transform="matrix(0.1343 -0.9909 0.9909 0.1343 -43.1791 387.1765)" cx="200" cy="218.3" rx="6.2" ry="6.2"/>
<polygon points="89.3,99.5 106.8,185.9 122.1,160.9 "/>
<polygon points="164.2,79.5 125.6,158.7 152.9,148.2 "/>
<polygon points="312.3,99.5 294.9,185.9 279.6,160.9 "/>
<polygon points="237.4,79.5 276.1,158.7 248.7,148.2 "/>
</svg>
